<?xml version="1.0" encoding="UTF-8"?>
<svg version="1.1" xml:space="preserve" xmlns="http://www.w3.org/2000/svg"
     viewBox="0 0 256 256" width="256" height="256" >
  <rect id="background" fill="#f60" x="0" y="0" width="256" height="256" rx="64" ry="64"/>
  <g id="cup-wrapper">
    <path id="cup-border" fill="#fff" d="m106.46 31.462c-2.9727 1.2818-5.8345 3.2062-7.4473 6.0911-1.3934 2.6631-2.1967 5.9181-1.1028 8.8293 0.80173 1.9524 2.7048 3.0861 4.4861 4.0256 4.814 2.76 9.6332 5.5074 14.412 8.3325 1.2784 0.76539 2.5478 1.5455 3.8109 2.336 0.11204 7.0077 0.0643 14.016 0.078 21.025-11.901 0.01046-23.804-0.03608-35.704 0.10676-4.0088 0.44544-6.9882 4.723-6.2333 8.6409 0.8976 13.544 1.9264 27.079 2.9315 40.615 0.30476 3.9413 0.61181 7.8856 0.99782 11.818 3.1662 9.7812 6.5043 19.516 9.4055 29.361 2.0364 13.069 4.0728 26.137 6.1092 39.206-1.0193 3.504-0.37083 7.5969 2.0979 10.356 1.8367 1.8494 4.5998 2.4588 7.1253 2.1518 14.989-8.1e-4 29.979 0.0633 44.966-0.0893 3.8281-0.49093 6.7482-4.1217 6.9459-7.886 0.17388-1.7617 0.0195-3.5946-0.71418-5.2227 2.2336-13.613 4.3363-27.251 6.6999-40.841 3.144-9.7671 6.4694-19.482 9.3406-29.331 1.1283-17.456 2.3112-34.909 3.3318-52.371-0.25136-3.9377-4.2946-7.04-8.1565-6.4851-10.004-0.0011-20.008 0.0063-30.011 0.02391-0.042-8.3249 0.16226-16.659-0.27351-24.976-0.66253-4.7997-3.846-9.0589-8.0521-11.383-4.5404-2.87-9.2952-5.3767-13.901-8.1373-3.6433-2.103-7.2865-4.206-10.93-6.3089-0.0707 0.03771-0.14129 0.07542-0.21193 0.11313z"/>
    <g id="cup-main-wrapper">
      <path id="cup-main" fill="#00f" d="m104.48 212.83-6.641-42.649-9.3915-28.772-3.6785-50.57c-0.19629-2.6985 0.29513-2.6985 2.724-2.6985l39.253 0.0077-4e-5 -24.367c0-6.3207 0-6.3207-6.0532-9.8155l-17.251-9.96c0-2.4339 1.028-4.745 3.1231-5.7399l20.181 11.652c5.6859 3.2827 7.0474 5.4538 7.0474 11.612 0 0 8.2e-4 16.299 2e-3 26.677l36.412-0.06576c2.0414 0 1.8221 0.71197 1.702 2.5486l-3.2623 49.896-9.4131 28.901-6.596 41.004-0.37639 2.3398c1.6242 0 1.6242 5.4994-0.88464 5.4994h-46.039c-1.8951 0-1.8951-5.4994-0.85632-5.4994z"/>
      <path id="cup-accent" fill="#0ff" d="m149.68 197.25 4.7942-29.803 9.4985-29.163 0.67581-14.122-6.9976 4e-3 -0.0587 13.784-8.2738 29.647-3.7761 29.654zm17.008-100.62-9.0844 0.08744-0.0222 17.082 7.9516 0.0984z"/>
    </g>
  </g>
</svg>
